<svg enable-background="new 0 0 648 648" height="316.227766" viewBox="0 0 648 648" width="316.227766" xmlns="http://www.w3.org/2000/svg"><path d="m324.15 642.232c134.483 0 250.229-90.956 302.039-201.678l-.062-.082-19.621-13.62 11.981-30.996-16.744-1.517 8.593-20.45-41.471-23.896 59.836-11.731.083-.104c.892-9.198 1.349-18.52 1.349-27.966 0-162.396-136.993-304.426-305.983-304.426h-.301c-168.988 0-305.983 142.029-305.983 304.426 0 9.446.457 18.768 1.35 27.966l.093.104 59.824 11.731-41.46 23.896 8.595 20.45-16.754 1.517 11.979 30.996-19.619 13.62-.063.082c51.8 110.722 167.556 201.678 302.039 201.678z" fill="#fff" stroke="#0093ce" stroke-width="4.4556"/><path d="m44.596 394.631 47.492-3.758-50.595 35.98" fill="none" stroke="#0093ce" stroke-width="2.7892"/><path d="m38.058 373.993 54.03 16.88" fill="none" stroke="#0093ce" stroke-width="2.7892"/><path d="m603.415 394.631-47.492-3.758 50.584 35.98" fill="none" stroke="#0093ce" stroke-width="2.7892"/><path d="m609.933 373.993-54.01 16.88" fill="none" stroke="#0093ce" stroke-width="2.7892"/><path d="m397.979 282.103v-5.502s-10.296-1.308-2.033-6.872c0 0-5.035-.768-5.035-2.532 0-1.952 1.733-2.388 4.91-3.156 0 0-4.91-.809-4.91-2.636 0-2.139 1.816-1.806 5.035-2.804 0 0-5.024-.705-5.024-2.865 0-.851 1.349-1.682 5.024-2.346 0 0-5.035-.644-5.035-2.823 0-1.786 1.339-1.91 4.785-2.575 0 0-4.785-.56-4.785-2.2 0-1.745 1.4-2.098 4.609-2.969 0 0-4.609-.873-4.609-2.533 0-1.599 1.359-1.911 4.91-2.45 0 0-4.91-.063-4.91-2.409 0-2.117 1.982-1.972 5.221-2.594 0 0-5.221-.104-5.221-1.911 0-1.765 1.089-2.657 4.879-3.114-3.207.395-4.879-.249-4.879-1.599 0-2.138 4.101-3.134 6.996-3.052v-9.716h3.333v9.716c2.874-.082 6.986.914 6.986 3.052 0 1.35-1.672 1.994-4.891 1.599 3.79.458 4.891 1.35 4.891 3.114 0 1.807-5.212 1.911-5.212 1.911 3.238.623 5.212.477 5.212 2.594 0 2.346-4.91 2.409-4.91 2.409 3.549.54 4.91.852 4.91 2.45 0 1.661-4.609 2.533-4.609 2.533 3.207.871 4.609 1.224 4.609 2.969 0 1.64-4.776 2.2-4.776 2.2 3.437.665 4.776.789 4.776 2.575 0 2.18-5.025 2.823-5.025 2.823 3.664.665 5.015 1.495 5.015 2.346 0 2.16-5.015 2.865-5.015 2.865 3.209.998 5.025.665 5.025 2.804 0 1.827-4.91 2.636-4.91 2.636 3.187.769 4.91 1.204 4.91 3.156 0 1.765-5.025 2.532-5.025 2.532 8.253 5.564-1.806 6.872-1.806 6.872v5.502z" fill="#0093ce"/><path d="m399.132 369.198v-5.336s-10.298-1.245-2.045-6.623c0 0-5.024-.749-5.024-2.472 0-1.889 1.733-2.283 4.91-3.03 0 0-4.91-.788-4.91-2.553 0-2.076 1.826-1.724 5.024-2.7 0 0-5.015-.686-5.015-2.782 0-.851 1.35-1.619 5.015-2.284 0 0-5.024-.622-5.024-2.719 0-1.744 1.34-1.869 4.785-2.492 0 0-4.785-.539-4.785-2.138 0-1.682 1.391-2.014 4.609-2.865 0 0-4.609-.831-4.609-2.47 0-1.496 1.369-1.829 4.91-2.348 0 0-4.91-.062-4.91-2.345 0-2.035 1.982-1.89 5.212-2.492 0 0-5.212-.083-5.212-1.869 0-1.682 1.1-2.076 4.889-2.491-3.207.353-4.889-.727-4.889-2.035 0-2.117 4.101-3.052 6.985-2.969v-9.405h3.343v9.405c2.876-.083 6.997.852 6.997 2.969 0 1.308-1.682 2.388-4.89 2.035 3.778.415 4.89.809 4.89 2.491 0 1.786-5.221 1.869-5.221 1.869 3.228.602 5.221.457 5.221 2.492 0 2.283-4.92 2.345-4.92 2.345 3.549.519 4.92.852 4.92 2.348 0 1.639-4.618 2.47-4.618 2.47 3.206.852 4.618 1.184 4.618 2.865 0 1.599-4.785 2.138-4.785 2.138 3.425.623 4.785.748 4.785 2.492 0 2.097-5.034 2.719-5.034 2.719 3.663.665 5.023 1.434 5.023 2.284 0 2.097-5.023 2.782-5.023 2.782 3.219.977 5.034.624 5.034 2.7 0 1.765-4.92 2.553-4.92 2.553 3.187.747 4.92 1.142 4.92 3.03 0 1.723-5.034 2.472-5.034 2.472 8.253 5.378-1.797 6.623-1.797 6.623v5.336z" fill="#0093ce"/><path d="m399.132 458.306v-5.335s-10.298-1.246-2.045-6.644c0 0-5.024-.748-5.024-2.45 0-1.889 1.733-2.284 4.91-3.032 0 0-4.91-.788-4.91-2.573 0-2.076 1.826-1.723 5.024-2.698 0 0-5.015-.666-5.015-2.762 0-.831 1.35-1.64 5.015-2.284 0 0-5.024-.623-5.024-2.741 0-1.701 1.34-1.847 4.785-2.491 0 0-4.785-.519-4.785-2.117 0-1.701 1.391-2.035 4.609-2.866 0 0-4.609-.83-4.609-2.447 0-1.56 1.369-1.85 4.91-2.39 0 0-4.91-.062-4.91-2.325 0-2.056 1.982-1.89 5.212-2.512 0 0-5.212-.083-5.212-1.869 0-1.66 1.1-2.034 4.889-2.49-3.207.395-4.889-.749-4.889-2.036 0-2.096 4.101-3.052 6.985-2.969v-9.362h3.343v9.362c2.876-.083 6.997.873 6.997 2.969 0 1.287-1.682 2.431-4.89 2.036 3.778.456 4.89.83 4.89 2.49 0 1.786-5.221 1.869-5.221 1.869 3.228.622 5.221.456 5.221 2.512 0 2.264-4.92 2.325-4.92 2.325 3.549.54 4.92.83 4.92 2.39 0 1.617-4.618 2.447-4.618 2.447 3.206.831 4.618 1.165 4.618 2.866 0 1.599-4.785 2.117-4.785 2.117 3.425.645 4.785.79 4.785 2.491 0 2.118-5.034 2.741-5.034 2.741 3.663.645 5.023 1.453 5.023 2.284 0 2.096-5.023 2.762-5.023 2.762 3.219.976 5.034.622 5.034 2.698 0 1.785-4.92 2.573-4.92 2.573 3.187.748 4.92 1.144 4.92 3.032 0 1.702-5.034 2.45-5.034 2.45 8.253 5.397-1.797 6.644-1.797 6.644v5.335z" fill="#0093ce"/><path d="m243.513 298.007v-5.523s-10.296-1.267-2.035-6.852c0 0-5.023-.789-5.023-2.533 0-1.952 1.723-2.388 4.9-3.176 0 0-4.9-.79-4.9-2.617 0-2.138 1.806-1.785 5.023-2.803 0 0-5.012-.685-5.012-2.844 0-.872 1.338-1.703 5.012-2.346 0 0-5.023-.685-5.023-2.844 0-1.744 1.338-1.911 4.775-2.574 0 0-4.775-.561-4.775-2.18 0-1.765 1.401-2.117 4.608-2.969 0 0-4.608-.893-4.608-2.554 0-1.579 1.349-1.89 4.9-2.45 0 0-4.9-.063-4.9-2.43 0-2.138 1.972-1.931 5.2-2.574 0 0-5.2-.083-5.2-1.91 0-1.744 1.089-2.16 4.889-2.595-3.229.354-4.889-.768-4.889-2.117 0-2.18 4.1-3.135 6.976-3.073v-9.674h3.342v9.674c2.885-.062 6.996.893 6.996 3.073 0 1.35-1.681 2.471-4.898 2.117 3.799.436 4.898.852 4.898 2.595 0 1.827-5.221 1.91-5.221 1.91 3.25.644 5.221.436 5.221 2.574 0 2.367-4.919 2.43-4.919 2.43 3.56.56 4.919.871 4.919 2.45 0 1.661-4.619 2.554-4.619 2.554 3.217.852 4.619 1.204 4.619 2.969 0 1.619-4.794 2.18-4.794 2.18 3.446.664 4.794.831 4.794 2.574 0 2.159-5.023 2.844-5.023 2.844 3.664.644 5.003 1.474 5.003 2.346 0 2.159-5.003 2.844-5.003 2.844 3.196 1.018 5.023.665 5.023 2.803 0 1.827-4.919 2.617-4.919 2.617 3.188.789 4.919 1.225 4.919 3.176 0 1.744-5.023 2.533-5.023 2.533 8.242 5.585-1.807 6.852-1.807 6.852v5.523z" fill="#0093ce"/><path d="m243.908 385.122v-5.378s-10.308-1.204-2.055-6.603c0 0-5.025-.768-5.025-2.449 0-1.91 1.734-2.304 4.92-3.072 0 0-4.92-.747-4.92-2.534 0-2.075 1.817-1.742 5.025-2.698 0 0-5.004-.705-5.004-2.781 0-.831 1.35-1.64 5.004-2.284 0 0-5.025-.623-5.025-2.741 0-1.702 1.35-1.826 4.787-2.47 0 0-4.787-.54-4.787-2.117 0-1.703 1.412-2.035 4.609-2.886 0 0-4.609-.832-4.609-2.45 0-1.537 1.371-1.849 4.92-2.367 0 0-4.92-.063-4.92-2.347 0-2.057 1.993-1.89 5.222-2.492 0 0-5.222-.082-5.222-1.848 0-1.701 1.111-2.075 4.9-2.531-3.218.394-4.9-.727-4.9-2.014 0-2.118 4.111-3.053 6.996-2.99v-9.364h3.333v9.364c2.897-.063 6.997.872 6.997 2.99 0 1.287-1.681 2.407-4.9 2.014 3.789.456 4.9.83 4.9 2.531 0 1.766-5.221 1.848-5.221 1.848 3.238.603 5.221.436 5.221 2.492 0 2.284-4.919 2.347-4.919 2.347 3.56.519 4.919.83 4.919 2.367 0 1.618-4.608 2.45-4.608 2.45 3.207.851 4.608 1.183 4.608 2.886 0 1.577-4.786 2.117-4.786 2.117 3.437.644 4.786.768 4.786 2.47 0 2.118-5.035 2.741-5.035 2.741 3.675.645 5.026 1.453 5.026 2.284 0 2.076-5.026 2.781-5.026 2.781 3.219.956 5.035.623 5.035 2.698 0 1.787-4.919 2.534-4.919 2.534 3.186.769 4.919 1.162 4.919 3.072 0 1.682-5.035 2.449-5.035 2.449 8.264 5.398-1.795 6.603-1.795 6.603v5.378z" fill="#0093ce"/><path d="m243.513 472.964v-5.336s-10.296-1.245-2.035-6.644c0 0-5.023-.747-5.023-2.45 0-1.89 1.723-2.304 4.9-3.031 0 0-4.9-.789-4.9-2.555 0-2.096 1.806-1.764 5.023-2.719 0 0-5.012-.685-5.012-2.781 0-.831 1.338-1.64 5.012-2.264 0 0-5.023-.622-5.023-2.741 0-1.702 1.338-1.847 4.775-2.47 0 0-4.775-.561-4.775-2.139 0-1.702 1.401-2.035 4.608-2.887 0 0-4.608-.809-4.608-2.448 0-1.537 1.349-1.828 4.9-2.366 0 0-4.9-.064-4.9-2.325 0-2.056 1.972-1.89 5.2-2.514 0 0-5.2-.062-5.2-1.848 0-1.702 1.089-2.076 4.889-2.512-3.229.374-4.889-.746-4.889-2.035 0-2.097 4.1-3.052 6.976-2.968v-9.385h3.342v9.385c2.885-.084 6.996.871 6.996 2.968 0 1.289-1.681 2.409-4.898 2.035 3.799.436 4.898.81 4.898 2.512 0 1.786-5.221 1.848-5.221 1.848 3.25.624 5.221.458 5.221 2.514 0 2.261-4.919 2.325-4.919 2.325 3.56.538 4.919.829 4.919 2.366 0 1.64-4.619 2.448-4.619 2.448 3.217.852 4.619 1.185 4.619 2.887 0 1.578-4.794 2.139-4.794 2.139 3.446.623 4.794.768 4.794 2.47 0 2.119-5.023 2.741-5.023 2.741 3.664.624 5.003 1.433 5.003 2.264 0 2.097-5.003 2.781-5.003 2.781 3.196.955 5.023.623 5.023 2.719 0 1.766-4.919 2.555-4.919 2.555 3.188.728 4.919 1.142 4.919 3.031 0 1.703-5.023 2.45-5.023 2.45 8.242 5.398-1.807 6.644-1.807 6.644v5.336z" fill="#0093ce"/><path d="m601.65 283.016s5.999-3.488 7.318-10.193c0 0 13.162-.187 8.813-14.824-.686-2.325-3.416-9.591-5.139-22.049 0 0-4.1 12.728-7.609 20.181-1.245 2.678-4.421 12.997 1.278 14.782 0 0-1.9 6.686-4.745 7.994z" fill="#0093ce"/><path d="m596.272 252.289s5.564-4.131 6.052-10.94c0 0 13.06-1.641 6.976-15.696-.965-2.221-4.558-9.135-7.765-21.301 0 0-2.532 13.059-5.108 20.865-.933 2.823-2.843 13.391 3.053 14.554 0 0-1.11 6.81-3.768 8.429z" fill="#0093ce"/><path d="m586.784 221.043s4.774-4.194 4.557-11.024c0 0 12.831-2.865 5.315-16.277-1.203-2.138-5.47-8.679-9.925-20.492 0 0-1.172 13.288-2.937 21.281-.623 2.886-1.432 13.599 4.548 14.159 0 0-.396 6.893-2.856 8.783z" fill="#0093ce"/><path d="m572.572 190.96s4.08-4.007 3.479-10.464c0 0 11.99-3.405 4.079-15.737-1.267-1.952-5.709-7.91-10.63-18.852 0 0-.332 12.665-1.524 20.306-.427 2.782-.552 12.996 5.147 13.204 0 0 .042 6.562-2.19 8.471z" fill="#0093ce"/><path d="m555.392 164.448s3.729-3.967 2.856-10.049c0 0 11.179-3.779 3.104-15.052-1.287-1.806-5.771-7.267-10.94-17.419 0 0 .269 12-.478 19.309-.281 2.636.082 12.311 5.48 12.269 0 0 .352 6.188-1.662 8.118z" fill="#0093ce"/><path d="m538.846 144.475s2.751-4.381.871-9.882c0 0 9.718-5.336.24-14.513-1.505-1.453-6.644-5.792-13.246-14.387 0 0 2.377 11.107 2.959 18.021.207 2.512 2.263 11.419 7.267 10.485 0 0 1.411 5.73-.125 7.827z" fill="#0093ce"/><path d="m594.985 247.286s-5.604.249-11.065-4.09c0 0-10.236 7.972-16.651-5.958-.996-2.221-3.748-9.467-10.702-20.097 0 0 11.615 7.245 19.267 10.816 2.751 1.308 12.052 7.288 8.844 12.146 0 0 5.938 4.402 9 3.654z" fill="#0093ce"/><path d="m584.355 215.791s-5.397 1.1-11.306-2.637c0 0-9.32 8.927-17.19-4.298-1.245-2.117-4.744-9.051-12.819-18.913 0 0 12.332 6.041 20.326 8.864 2.885.997 12.767 6 10.109 11.191 0 0 6.229 3.779 9.188 2.761z" fill="#0093ce"/><path d="m570.247 187.078s-5.044 1.308-11.065-1.599c0 0-7.713 9.488-16.724-2.097-1.432-1.848-5.585-8.013-14.377-16.422 0 0 12.362 4.36 20.242 6.083 2.834.644 12.769 4.256 10.879 9.447 0 0 6.364 2.886 9.032 1.599z" fill="#0093ce"/><path d="m552.954 161.707s-5.159 2.533-11.076.249c0 0-6.51 9.529-15.967-.706-1.505-1.64-5.927-7.142-14.917-14.429 0 0 12.021 3.156 19.609 4.214 2.71.374 12.405 3.052 11.034 8.097 0 0 6.778 1.745 9.198.332z" fill="#0093ce"/><path d="m536.407 142.025s-4.412 2.305-10.019.188c0 0-6.053 9.051-15.083-.561-1.443-1.536-5.668-6.686-14.222-13.474 0 0 11.388 2.886 18.561 3.799 2.564.353 11.74 2.783 10.506 7.537 0 0 5.854 1.682 8.118.291z" fill="#0093ce"/><path d="m600.893 278.055s-5.917-.167-10.766-5.128c0 0-11.191 6.643-15.748-7.931-.715-2.305-2.492-9.841-8.014-21.239 0 0 10.579 8.595 17.709 13.08 2.565 1.62 11.025 8.637 7.205 13.101 0 0 5.377 5.066 8.502 4.734z" fill="#0093ce"/><path d="m519.641 122.862s35.161 36.791 47.243 56.762c49.008 81.053 35.482 152.037 35.482 152.037s-.113 1.288-1.267 1.288c-1.152-.042-1.101-.874-1.101-.874s15.114-70.464-33.894-151.496c-12.094-19.994-46.92-57.323-46.92-57.323z" fill="#0093ce" stroke="#0093ce" stroke-width="2.2314"/><path d="m497.707 106.232c-3.062 0 4.889 7.059 6.728 12.333 1.825 5.273 7.939 8.221 14.656 5.273 6.738-2.927-6.717-17.606-21.384-17.606z" fill="#0093ce"/><path d="m323.85 516.667c118.631 0 214.789-92.43 214.789-206.474 0-114.022-96.158-206.452-214.789-206.452-118.642 0-214.799 92.43-214.799 206.452 0 114.044 96.157 206.474 214.799 206.474z" fill="none" stroke="#0093ce" stroke-width="8.9112"/><path d="m216.616 63.111-6.229-12.54 9.261-3.26s4.505-1.869 6.84-2.719l10.339 28.795 7.372 2.429-11.368-33.28 7.878-2.347-2.128-3.903s-20.377 5.876-34.13 12.042c-19.756 8.305-31.817 15.696-31.817 15.696l3.156 3.218s9.03-4.879 15.063-7.931c6.301-3.177 13.951-6 13.951-6-4.608 3.488-6.384 7.641-10.878 12-3.437 3.405-5.119 5.523-8.564 9.779l8.844 3.031c4.546-1.765 7.423-2.263 11.481-2.408 4.993-.249 8.782 1.142 9.643 1.64l6.333 3.903 4.308.561-9.355-18.706-5.574 2.471 3.695 7.495c-2.138-.872-3.799-1.142-6.809-1.557-3.24-.478-6.467-.478-10.381-.063 1.475-1.702 2.43-2.803 4.422-4.899 2.128-2.222 3.987-3.945 6.592-6.021l2.481 5.045z" fill="#0093ce"/><path d="m248.839 37.823c8.138-7.952 23.906-.852 16.536 8.346-7.412 9.301-27.218 2.077-16.536-8.346zm17.74 25.121c-5.138-1.703-9.135-3.052-14.024-2.865l-1.661-8.658c6.55 1.142 8.024 1.745 13.35 3.986 5.138 1.932 17.232 10.257 17.232 10.257l1.048 4.234c-6.716-2.573-8.534-4.503-15.945-6.954zm-12.81-21.488c-2.179 2.221-1.203 8.056 5.149 2.762 3.779-3.301.665-8.72-5.149-2.762z" fill="#0093ce"/><path d="m346.553 25.179c44.544 2.513 85.122 18.665 85.122 18.665 4.941 2.201 5.845 5.273 6.238 5.938.427.769.832 2.18.883 3.114 1.309-.602 3.769-1.142 5.73-1.267.871-.145 2.512-.208 4.339.167 2.16.519 2.98 1.432 3.645 2.304.3.229 2.272 2.367 2.792 3.57.581 1.246.977 2.367 1.131 3.925l2.585-6.063 14.42 7.579-2.461 3.696-7.577-4.194-14.804 30.104-3.996-6.644 8.854-17.73c.405-.871-.26-6.27-2.284-8.305-.374-.457-.736-1.142-1.245-1.142-.354-.104-2.076-.872-2.698-.643-.438.104-1.341.291-1.578.561.86.892 1.441 2.2 1.815 2.657.935 1.163 1.361 2.782 1.516 3.674.25.54 0 2.264-.933 2.97-.551.269-1.672 1.328-2.908 1.598-2.979.374-6.935-1.204-8.657-4.65-.385-1.08-.177-1.703-.446-1.765l-1.12.457c-.77.332-3.324 1.017-5.638.208-4.308-1.641-5.668-4.63-5.43-6.374.155-3.779 6.353-4.548 6.353-4.548 1.974-.145 2.71-.415 3.779-.145l-1.007-2.243c-.197-.249-1.452-1.764-2.605-2.304l-5.471-2.367-2.398-.644c-9.344-3.798-33.499-9.757-33.499-9.757l-3.707 13.537c-.083.25 5.306-2.803 7.755-3.467 6.987-1.765 12.01-1.557 13.91-1.64l7.413 6.789s-6.271 4.609-8.398 9.115c-.156.228-2.171 4.028-2.408 6.893-.229 2.511-.645 1.308-.52 8.221l-4.422-3.031-.176-4.381c-.115-3.985.538-7.287.798-8.532.582-2.761 1.599-5.024 3.405-7.765-2.833.021-5.688.478-7.743 1.081-4.246 1.39-8.616 3.507-11.793 6.788l-5.689-6.893 4.994-17.938-4.755-1.018-1.111-.166c-8.864-1.163-15.01 2.99-18.747 8.284-2.149 3.737-2.076 5.148-2.512 6.374-.707 1.827-.561 6.25.03 7.288.178.685.831 2.595 2.366 3.529.26.104 1.299 1.1 2.451 1.453.436.146 1.692.374 1.536.208-.26-.125-1.807-.832-1.963-2.43-.042-.332.022-2.906 3.914-3.841 2.937-.789 4.682.499 5.741.872 3.166 1.598 4.64 5.647-.125 8.367-4.464 2.491-11.555.125-13.807-1.64-9.031-7.059-6.777-16.256-6.041-18.935.737-2.824 4.796-7.662 10.951-11.855 0 0-18.894-1.66-22.506-1.848 0 1.931-1.546 34.984-1.546 34.984l-5.979-4.796.882-30.416-8.833-.145-8.118.373 3.031 33.883-6.893-3.674-1.639-17.855c-.063-.601-.997-1.888-2.326-2.449 0 0-1.537-.893-3.332-.582-1.63.27-2.304 1.806-1.921 3.011l.644 2.034-4.599 1.578c.955-1.495-.021-2.221-.114-2.366-1.64-1.911-2.646-2.845-6.861-3.114-3.602-.354-7.704 1.453-8.43 4.567-.591 2.637 1.703 3.696 3.738 4.069-1.796-2.74 1.246-5.419 4.868-5.792 5.866-.581 7.163 5.585 6.935 6.145-2.834 5.938-13.413 3.925-14.741 3.405-5.72-1.744-7.651-5.875-7.007-9.8.954-4.526 4.951-7.702 9.747-8.159 4.609-.478 7.381.976 8.44 1.433.478.249.789.665.883.665-.063-.581 4.09-3.031 6.27-3.218 5.43-.415 5.906 1.723 6.758 2.2.114.042.841 2.077.716.79l-.603-6.603s-13.671.893-17.698 1.392c-9.707 1.308-16.797 2.471-16.797 2.471l-.996-4.484c33.914-4.966 49.225-4.758 74.233-3.368z" fill="#0093ce"/><path d="m94.31 488.389 14.098-9.716 8.055 9.468-13.225 12.769 1.568 8.907c4.515-1.267 9.498-.956 14.024-.022 2.117.52 4.9 1.559 7.453 2.97-3.011 1.475-5.066 2.948-6.997 5.046-.873.996-3.135 3.569-5.087 7.099l-2.055 3.904 2.408 4.858c3.416-6.083 3.156-4.796 4.65-6.915 1.682-2.367 5.398-4.67 5.668-4.816 4.204-2.886 12.135-3.736 12.135-3.736l-3.156-9.676c-1.733-.892-6.125-3.59-13.255-5.584-2.534-.664-8.907-.664-8.7-.851l9.322-9.012s16.796 18.271 34.309 30.271c-5.907.602-4.578.124-7.484 1.537-6.737 3.218-6.312 12.686-9.146 15.342-3.135 3.053-4.422 2.43-7.879 1.973-2.055-.25-5.014-2.512-5.398-.83-.218 1.017-.113 1.808 1.496 3.053 1.526 1.204 9.706 3.943 14.377 2.553 4.028-1.204 4.473-3.987 6.747-6.955 2.606-3.592 2.304-6.353 5.252-10.173 1.288-1.785 2.636-3.966 5.471-3.655l3.914 2.638 2.948-3.842s-48.386-30.581-78.552-85.702l1.703-2.596c.436-.229 3.447.458 4.745.913 2.439.77 2.647.977 4.401 2.223 3.353 2.366 5.574 6.269 6.715 8.656 1.661 3.467 3.322 9.136 3.291 12.977 0 0 .197 6.248.197 7.682 0 1.433 2.762-.582 2.762-.582l.166-3.468c.083-.974.561-2.054.25-5.832-.395-4.133-2.616-17.772-9.457-24-6.634-6.104-8.555-5.295-11.908-6.104-.706-.166-4.339.208-4.609 2.201l-1.059 3.403-4.276-8.076-4.194 2.638 4.692 8.45-26.077 13.599-.748 7.745 29.917-15.76s4.454 8.056 8.835 14.367c4.411 6.354 11.792 15.675 11.792 15.675-4.537-3.902-8.336-5.438-13.733-9.093-4.226-2.782-6.728-4.069-11.813-6.707l-1.371 9.095c2.751 4.132 3.831 6.871 4.787 10.774 1.277 4.817.591 8.741.239 9.655l-2.741 6.809.279 4.276 14.254-9.823-.945-7.059-6.55 4.506c.478-2.223.447-3.862.27-6.893-.186-3.197-.81-6.354-2.035-10.09 2.056 1.142 3.396 1.931 5.949 3.487 2.729 1.683 4.889 3.197 7.557 5.398l-5.191 3.591z" fill="#0093ce"/><path d="m115.134 535.436c.229.436.488 1.266.831 2.139.624 1.827.592 1.724.831 2.698.737 2.264 1.059 4.733.997 6.623 0 1.557-.125 2.265-.499 3.094.125.269-2.346 1.702-2.761-.913-.208-2.45-1.558-6.54-2.751-9.675-.208-.645-.53-3.344-.82-3.303-4.235-.538-7.038-.975-9.311-2.886-3.529-2.594-4.1-4.172-4.692-5.916-.488-1.268-.416-2.347.176-3.468.955-1.494 2.325-2.034 4.474-2.014 1.588.166 3.312.622 5.014 1.641 3.758 2.325 4.91 4.65 6.072 6.996zm-9.633-7.455c-1.454-1.184-3.021-1.91-3.405-.913-.208.789.727 1.558 1.786 2.326 1.578.996 3.695 2.137 3.934 1.432-.01-1.245-1.34-2.138-2.315-2.845z" fill="#0093ce"/><path d="m177.409 572.973c.903-.894 2.013-.561 2.657-1.911 1.619-3.425-3.342-8.158-6.997-11.793-4.806-4.795-8.575-8.802-9.892-13.681-1.371-5.357-.978-8.576 2.916-11.585 2.627-2.077 5.846-2.242 10.05-1.723 2.834.373 5.014 1.493 6.415 2.242 2.367 1.308 4.868 2.78 6.529 4.856 5.16 6.854.903 10.424.385 11.088-2.378 2.367-6.042 3.072-12.323-1.474-3.031-1.87-4.588-4.277-5.335-7.62-.354-1.371.569-2.824.55-3.861-.789-.146-2.824.643-3.167 1.681-.592 1.31-.55 2.45-.114 4.028.736 3.031 2.938 4.962 6.997 9.695 2.596 3.095 4.183 4.401 6.415 7.849 1.516 2.306 2.782 4.857 2.741 7.35-.052 2.885-.478 5.294-3.728 8.677zm5.335-32.119c-1.495-.954-2.917-1.868-4.422-2.449-1.194 1.183-1.308 2.22.778 5.584 1.298 1.931 5.595 3.031 6.519 2.077 1.64-1.704-.529-3.676-2.875-5.212z" fill="#0093ce"/><path d="m352.688 601.437c3.52-4.714 13.952-1.683 10.319 3.113-3.613 4.859-13.942 1.764-10.319-3.113z" fill="#0093ce"/><path d="m375.557 585.761-1.599-11.605s10.764-.416 37.235-9.114c.987 3.135 4.35 13.724 4.35 13.724.178.499-3.154-3.8-9.416-4.838-10.536-1.848-21.601 5.876-17.646 12.748 1.9 3.238 5.098 3.342 8.274 2.762 4.213-.687 7.317-2.348 8.076-4.673 1.463-5.376-7.009-4.691-4.226-5.583 4.567-1.454 10.951.663 13.039 2.241 3.632 2.803 9.207 8.533 9.632 12.082l4.474 1.974-10.338-32.472 9.114-3.302-2.439-4.234c-66.717 27.239-136.238 16.36-136.238 16.36l-3.882-.664c.249-1.121.405-2.388.114-3.26-.571-2.242-2.355-4.235-4.754-5.688-1.433-.894-4.817-2.202-7.558-2.887-3.114-.768-5.221-.83-7.266-1.184-3.624-.582-3.737-.54-5.813-1.184-3.073-.541-3.748-.519-5.482-1.432-.603-.333-1.619-1.019-1.816-1.393-.478-.871-.374-2.262 3.197-3.196l-3.457-1.784c-.768-.458-8.065 3.362-1.91 9.218 3.519 3.3 8.689 4.814 14.305 5.625 3.57.374 7.526 1.287 9.218 1.495 1.422.146 3.364.955 4.371 1.64.82.583 1.526.894 1.235 1.827.592.809-.778 1.245-4.587.602 0 0-20.128-3.758-33.51-8.241 0 1.909-.425 4.899-.425 4.899l19.941 5.106-1.951 8.659c-.747 3.487-.311 2.822-.478 3.55-.674 3.571 4.588 7.309 12.042 5.854 1.1-.187 6.073-1.786 7.838-3.219.612 1.143 1.027 2.803.509 3.861-.416 1.018-1.392 1.911-2.523 2.721-2.771 2.117-9.229 2.947-15.073.54-4.931-2.077-5.284-3.593-7.371-6.415-1.412-1.932-2.024-3.156-2.708-5.274-.623-2.055-1.87-6.54-1.267-11.045l-3.062-1.848c-.354-.207-2.285 5.584-1.184 12.935.311 2.117.55 3.28 1.535 5.396 2.876 6.271 4.422 10.217 14.96 13.704 9.342 3.114 16.369.478 19.38-3.593 4.495-6.021 4.09-8.18.903-12.996-.873-1.267-1.807-2.346-2.709-3.072-2.667-3.28-3.021-.747-4.868-.685-.727-.167-2.035.539-3.363 1.226-1.817.891-3.426 1.162-4.692 1.245-.645-.208-1.88-.707-1.412-1.911l1.869-7.931s25.661 3.966 27.343 4.34c16.993 1.867 29.17 1.266 29.17 1.266l-.479 14.325c-.011.562-1.744-4.547-7.308-7.494-9.364-4.962-22.433-1.079-20.979 6.643.715 3.676 3.715 4.754 6.902 5.192 4.235.663 7.744.02 9.229-1.932 3.166-4.609-5.076-6.624-2.148-6.603 4.817.021 10.163 4.008 11.605 6.125.883 1.329 1.858 3.072 2.741 4.921l-.063 3.278c-.861-.621-2.117-1.39-4.017-2.511-6.55-3.862-22.215-1.495-21.53 6.145.26 3.01 3.644 4.464 7.806 4.797 4.641.187 7.1-1.62 7.569-3.654 1.006-4.276-6.479-4.484-3.551-4.754 4.878-.561 9.987 1.432 12.24 2.989.424.291.903.622 1.39.977l-.009 2.387 6.104 3.113 1.1-33.923s3.686.145 9.861-.291l.135 1.702c2.896.249 4.442.396 7.318.54 5.274.249 5.896.645 7.776 1.101-1.133.747-2.336 1.66-3.728 2.679-2.854 2.075-5.18 3.923-8.574 6.954l7.847 5.086c6.967-.603 10.019-.455 15.707 2.015 6.799 3.072 7.817 6.332 9.051 6.997l3.914 2.118-3.01-21.799-6.487.81 1.349 10.258c-1.94-1.601-3.986-2.699-5.896-3.469-4.329-1.682-6.384-2.014-9.561-2.387 1.745-1.848 3.841-3.861 4.712-4.506 2.265-1.516 5.047-4.152 5.047-4.152-4.714-3.031-6.322-3.695-7.766-4.443-1.122-.622-1.162-.478-2.055-.871l12.716-1.474 1.454 11.044z" fill="#0093ce"/><path d="m478.99 532.383c-1.608 5.689.188 10.922 1.464 13.35 1.359 2.471 6.261 10.817 18.239 9.801 2.97-.25 10.049-3.324 11.604-8.243 1.351-4.318-.279-6.166-3.788-6.27-1.525 0-2.771.353-4.308 1.244-1.631.936-2.646 1.724-3.447 3.177-.964 1.829.218 4.194.385 4.423 1.879 1.432 4.266-.021 2.325.955-.653.374-1.858.602-1.932.686-3.113.623-6.528-1.308-7.359-1.827-.519-.374-4.091-.997-5.906-7.807-2.087-8.491-2.616-13.268 9.166-20.97 0 0 12.125-8.511 20.824-18.312-2.533 2.908-4.132 8.638-7.205 14.243-2.313 4.381-3.3 6.934-5.366 12.124l9.562.104c3.923-3.135 6.582-4.525 10.493-5.938 4.807-1.827 8.949-1.724 9.945-1.496l7.371 1.724 4.39-.788s-5.272-5.461-10.899-11.253l-7.214 1.848 4.452 4.547c-2.366-.187-4.059.104-7.142.643-3.301.583-6.467 1.6-10.151 3.261.913-2.118 1.516-3.487 2.813-6.124 1.39-2.825 2.678-5.088 4.576-7.911l5.451 5.585 7.214-1.848c-5.667-5.793-11.709-11.979-13.174-13.433 4.849-3.675 10.517-10.464 10.517-10.464s4.982 3.924 5.523 4.359l17.397 14.035 7.774-1.765s-24.052-19.371-26.532-21.696c7.577-7.91 15.779-20.076 15.779-20.076s10.172 6.25 10.919 6.499c4.443.664 8.782-1.516 10.05-8.824.196-1.038.488-6.354-.229-8.388 1.277-.311 2.969-.229 3.987.603.778.685 1.484 1.867 1.867 3.154 1.092 3.261-.685 9.696-4.993 13.952-3.818 3.779-4.639 3.51-8.501 4.589-1.547.457-4.059.645-6.425.581-2.212-.165-6.935-.686-11.076-2.678l-2.835 2.034c-.374.312 8.533 5.004 11.958 5.585 2.273.332 5.793.541 5.793.541 4.423-.313 12.425-.291 18.571-8.556 5.896-7.889 6.281-14.739 3.385-18.893-4.858-7.059-10.921-5.916-14.45-5.064-2.658.747-3.612 1.432-4.837 2.387-.706 1.848.778 4.506.695 7.994-.093 1.742-.333 3.881-.82 4.858-.321.122-9.852-6.002-9.852-6.002l14.855-22.463-5.222-2.014s-8.45 13.992-9.084 15.445c.209-15.113-7.629-25.701-7.629-25.701l-2.284 1.765s6.104 13.328.363 27.01l6.8 1.204-1.496 2.429c-23.563 37.372-60.375 64.195-71.056 71.587z" fill="#0093ce"/><g stroke="#0093ce"><path d="m323.85 546.044c135.522 0 245.382-105.571 245.382-235.851 0-130.237-109.859-235.83-245.382-235.83-135.521 0-245.38 105.593-245.38 235.83 0 130.28 109.859 235.851 245.38 235.851z" fill="none" stroke-width="4.4556"/><path d="m131.993 121.347-3.934 7.266s-.467 5.73 3.664 5.273" fill="none" stroke-width="1.3946"/><path d="m85.902 172.648s-5.502 5.294-3.653 9.696" fill="none" stroke-width="1.3946"/><path d="m74.908 204.808 3.084.125" fill="none" stroke-width="1.3946"/><path d="m154.622 123.983-25.515 5.502" fill="none" stroke-width="2.2314"/><path d="m110.65 139.679s1.557-19.703-1.641-25.869" fill="none" stroke-width="2.2314"/><path d="m57.832 231.217s-5.314-18.956-5.314-24.666" fill="none" stroke-width="2.2314"/><path d="m60.708 244.463s-11.906 10.983-10.537 16.277c1.38 5.294 8.699.415 11.896-.893 3.219-1.308-10.972 3.986-11.896 8.367" fill="none" stroke-width="2.2314"/><path d="m43.3 253.681s8.574 8.076 6.291 16.443c-.416 1.432-2.139 24.664-2.139 24.664" fill="none" stroke-width="2.2314"/><path d="m40.559 222.165c.457 1.785 13.246 28.422 13.246 28.422" fill="none" stroke-width="2.2314"/><path d="m43.3 247.099 6.872 3.052s4.578 3.53 6.405-2.179c1.837-5.73-7.774-22.9-7.774-22.9s4.111 11.439 10.068 6.146c5.959-5.253 4.132-7.911 4.132-7.911s-.508-12.394-3.342-14.575" fill="none" stroke-width="2.2314"/><path d="m71.701 191.147s5.958-2.637 5.502-8.367" fill="none" stroke-width="2.2314"/><path d="m65.681 169.68s5.107 17.938 5.563 21.031c.457 3.072-2.751 6.167-2.751 6.167" fill="none" stroke-width="2.2314"/><path d="m78.573 157.866s-.383 10.152.052 25.433c0 0-4.63-.519-6.467-10.194" fill="none" stroke-width="2.2314"/><path d="m109.653 174.33-27.218 8.762s-1.111 4.089 4.848 2.761c5.948-1.329-10.537.893-12.375 2.657-1.826 1.745-5.5 6.603-5.035 10.547.458 3.965 4.713 7.08 4.713 7.08s.312-13.183 11.46-19.827" fill="none" stroke-width="2.2314"/><path d="m98.349 128.448s4.048 20.428 3.581 24.394" fill="none" stroke-width="2.2314"/><path d="m106.062 132.122s3.654 2.658 3.654 9.696c0 7.059-2.741 12.769-2.741 12.769l-21.135 16.898" fill="none" stroke-width="2.2314"/><path d="m86.669 137.23c3.624 24.477-2.802 25.079-2.802 25.079" fill="none" stroke-width="2.2314"/><path d="m85.456 172.648s14.191 1.329 18.778-7.037c4.578-8.388 3.198-12.333 3.198-12.333s-5.938-.893-9.156.436c-3.207 1.329-13.287 7.474-13.287 9.675-.001 2.222.467 9.259.467 9.259z" fill="none" stroke-width="2.2314"/><path d="m68.96 208.773-12.623-19.744" fill="none" stroke-width="2.2314"/><path d="m61.165 208.773s2.752 2.201 6.872.872c4.122-1.308 5.045-1.765 5.045-4.423 0-2.615-9.166-14.512-9.166-14.512" fill="none" stroke-width="2.2314"/><path d="m124.851 127.285s-1.723-21.427-1.256-27.157" fill="none" stroke-width="2.2314"/><path d="m115.674 119.353s3.674 6.603 3.218 12.769" fill="none" stroke-width="2.2314"/><path d="m117.511 150.184-7.795.893s17.419-18.498 18.789-20.699c1.38-2.201-2.285-2.637-4.111-2.201-1.847.436-15.582 13.204-15.582 15.405s.904 7.495.904 7.495z" fill="none" stroke-width="2.2314"/><path d="m150.958 102.579-18.789 17.668" fill="none" stroke-width="2.2314"/><path d="m131.722 110.114s.447 7.931 0 11.876c5.024-2.284 7.309-.603 7.309-.603" fill="none" stroke-width="2.2314"/><path d="m62.536 219.341s19.339-8.553 24.384-10.754" fill="none" stroke-width="2.2314"/><path d="m82.861 225.944-22.153 3.944s-2.751 4.879 3.208 7.059" fill="none" stroke-width="2.2314"/><path d="m51.095 261.155 23.699-18.914" fill="none" stroke-width="2.2314"/><path d="m53.378 272.636 17.431-9.945" fill="none" stroke-width="2.2314"/><path d="m45.126 271.287s-12.363-17.191-12.831-19.848" fill="none" stroke-width="2.2314"/><path d="m41.493 294.02s-9.695-17.024-10.608-18.81" fill="none" stroke-width="2.2314"/><path d="m33.084 293.917s-3.052-5.585-3.052-12.915c0-4.443-.301-7.37-.301-7.37s8.854 5.293 12.518 6.187c3.666.871-10.992-7.039-10.992-21.447 0-4.381 0-7.62 0-7.62s8.242.311 10.992 2.636c2.751 2.346 1.526-5.273 1.526-5.273s-7.94-12.623-5.19-19.973c1.35-3.592 1.224-7.349 1.224-7.349s5.191 2.636 9.156 4.401c0 0-1.515-9.385.924-13.204 2.44-3.82 1.526-7.329 1.526-7.329s4.578 3.509 9.467 4.111c0 0-5.792-10.568-5.501-14.388.312-3.841 0-6.768 0-6.768s4.889 2.927 8.554 3.238c0 0-1.224-9.986-.601-14.118.601-4.09 1.827-8.782 1.827-8.782s2.139 2.927 7.339 5.544c0 0 1.526-10.235 3.665-12.893 2.137-2.637 1.826-5.295 1.826-5.295s1.827 3.841 3.363 4.402c1.526.602-1.848-6.727 2.139-17.314.81-2.139 2.74-6.458 2.74-6.458s5.191 4.692 7.029 9.696c0 0 1.525-8.803 3.062-13.516 1.516-4.692 1.226-6.166 1.226-6.166s2.75 5.024 6.715 6.478c3.976 1.453 2.128-8.513 2.75-12.354.602-3.8 1.517-8.221 1.517-8.221s3.986 5.023 6.726 7.08c2.752 2.034 2.606-9.841 4.589-14.699 1.848-4.547 3.654-5.295 3.654-5.295s3.986 3.821 6.113 8.222c2.139 4.422 2.439 3.239 4.278 2.056 1.837-1.184 4.764-4.671 9.644-6.54 4.587-1.703 7.847-1.142 8.077-.498.311.83.923 5.584-1.838 9.405-2.741 3.799-10.08 9.384-10.08 9.384s7.641-.581 11.304.602c3.665 1.184 4.891 2.346 4.891 2.346s-3.353 4.692-8.856 7.059c-5.5 2.346-14.979 3.197-14.979 3.197s-2.74 8.844-13.433 15.28c-4.048 2.45 7.941 1.163 7.941 1.163l3.354.312s-8.357 10.567-23.939 10.857c-3.685 8.243-8.74 9.093-8.74 9.093s3.965-1.163 7.028 0c3.052 1.185 4.891 1.413 6.115 2.617 1.245 1.329-3.145 4.63-5.802 6.478-3.375 2.366-6.115 7.059-17.721 6.187 0 0 1.828 9.094-8.865 18.769-3.166 2.865 5.191 3.529 7.028 2.948s3.665 0 3.665 0-3.665 4.111-4.89 6.478c-1.214 2.325-8.252 6.437-8.252 6.437s1.235 1.764 3.374 2.366c2.139.583 2.439 2.035 4.267 1.454 1.837-.581-1.828 6.458-6.104 7.931-4.277 1.454-11.617 4.111-14.658 5.294-3.063 1.163-1.537 6.748-1.537 6.748s4.891-1.454 7.942-2.346c3.062-.893 6.416-.893 6.416-.893s1.837 5.294-2.44 9.405-11.004 8.803-11.004 8.803 5.191 3.238 8.564 2.055c3.354-1.163.613 7.661-2.75 8.803-3.872 1.371-13.143 11.17-13.143 11.17s-.882 9.405-3 11.003c-2.118 1.62-9.219 7.785-9.219 7.785s-4.071-6.041-9.168-6.456z" fill="none" stroke-width="2.2314"/><path d="m52.642 291.55s3.052-12.312 2.138-15.551c-.913-3.217-4.889-7.328-4.889-7.328s-5.137 1.412-6.114 6.748c-3.664 20.243-1.225 24.955-1.225 24.955" fill="none" stroke-width="2.2314"/><path d="m46.538 306.83 17.876-18.103" fill="none" stroke-width="2.2314"/><path d="m65.462 288.332s.313 6.457-2.127 10.588c-2.451 4.09-14.368 14.076-14.368 14.076s-3.965-9.986-6.717-12.624c0 .001 13.132-14.677 23.212-12.04z" fill="none" stroke-width="2.2314"/><path d="m47.431 321.965s-17.087-26.886-17.398-28.339" fill="none" stroke-width="2.2314"/><path d="m45.874 336.021v-13.183s-16.776-13.662-16.776-20.7c0-7.059 1.246-3.82.935-8.512 4.277-.29 9.778 3.8 9.778 3.8s7.33 8.242 9.156 15.862c1.059 4.38-1.328 9.405-1.328 9.405v13.329h-1.765z" fill="none" stroke-width="2.2314"/><path d="m107.888 157.202 20.367-5.502" fill="none" stroke-width="2.2314"/><path d="m60.241 230.78s-1.828-7.474 15.114-10.131c0 0-12.354 5.73-13.288 2.657-.903-3.093-2.74-8.366.468-10.588 3.207-2.2 11.907-6.602 14.211-6.602" fill="none" stroke-width="2.2314"/><path d="m78.625 183.299s1.691-.997 2.334-2.824c.624-1.848 1.735-4.298 1.735-4.298 5.501-11.024-1.837-16.713-1.837-16.713s-.915.416 3.218 1.309c4.121.851 4.588.415 7.328-3.965 2.751-4.423 1.848-11.024 1.848-11.024.468 2.201 2.73 8.366 2.73 8.366" fill="none" stroke-width="2.2314"/><path d="m231.42 123.318s32.46 14.804 93.811 9.53c0 0 91.248 80.098 199.289 103.89" fill="none" stroke-width="1.3946"/><path d="m313.137 402.977-19.257-42.271" fill="none" stroke-width="1.3946"/><path d="m295.5 352.194 11.595 12.892 6.114-11.73-18.944-33.446v-32.866" fill="none" stroke-width="1.3946"/><path d="m322.366 319.308 15.271-15.26" fill="none" stroke-width="1.3946"/><path d="m337.637 230.096 15.808 49.578-40.308 38.326" fill="none" stroke-width="1.3946"/><path d="m337.637 260.615 14.884-29.835 16.04-19.37 7.786 11.004 7.339-11.004" fill="none" stroke-width="1.3946"/><path d="m314.092 252.248 40.152 48.375" fill="none" stroke-width="1.3946"/><path d="m294.265 274.11 18.769 26.429-18.769 18.167" fill="none" stroke-width="1.3946"/><path d="m294.42 300.353 18.789-24.478" fill="none" stroke-width="1.3946"/><path d="m294.265 396.789-13.444 9.987-8.553-9.384-7.318 9.384-14.648-8.014" fill="none" stroke-width="1.3946"/><path d="m385.21 390.208-9.684 10.111-7.339-9.987-13.818 18.666-35.668 48.685 58.185 44.929" fill="none" stroke-width="1.3946"/><path d="m337.637 408.521 17.117 44.617" fill="none" stroke-width="1.3946"/><path d="m354.141 365.086-16.734 42.749-29.772-42.438-56.482 32.536 42.281-7.704h106.278" fill="none" stroke-width="1.3946"/><path d="m354.141 400.9-17.107-44.616 16.868 8.388v43.599h-40.308" fill="none" stroke-width="1.3946"/><path d="m313.812 319.308-19.547 31.703v55.765l18.944 39.322" fill="none" stroke-width="1.3946"/><path d="m294.888 229.888h16.411l43.07 49.35-.083 40.443-59.637-.373-.125-8.678-15.529 8.076-6.115-9.945-9.167 9.945-14.532-5.98" fill="none" stroke-width="1.3946"/><path d="m384.941 301.016-6.643 10.07-8.774-10.339-15.383 18.561" fill="none" stroke-width="1.3946"/><path d="m337.282 212.24-24.073 18.437-18.321 29.357" fill="none" stroke-width="1.3946"/><path d="m313.209 251.23-18.321-12.332-.011-9.425 46.517-44.41" fill="none" stroke-width="1.3946"/><path d="m303.431 473.089-9.166-31.101 18.944-23.481 23.825-28.777" fill="none" stroke-width="1.3946"/><path d="m313.594 325.038 23.813 27.301" fill="none" stroke-width="1.3946"/><path d="m337.865 438.666h-24.271" fill="none" stroke-width="1.3946"/><path d="m396.962 300.81-102.542-.457-43.537 10.172 43.454-22.92.935-27.301 42.01.353-22.339 17.252" fill="none" stroke-width="1.3946"/><path d="m313.677 510.771-.083-314.351 2.739-12.332-9.165-8.803-8.71 27.114-3.57 27.095" fill="none" stroke-width="1.3946"/><path d="m273.368 502.383 37.474-51.8 44.523 63.012" fill="none" stroke-width="1.3946"/><path d="m308.331 171.755 22.35-.29" fill="none" stroke-width="1.3946"/><path d="m394.47 210.704-46.433 1.184-53.772.602-41.161 8.657 46.663-19.225 33.301-15.841-8.253-41.108-8.553 39.924 36.042 44.597h-41.544l-16.88-16.776-13.733 16.755-8.16-12.105-7.422 12.105-14.315-5.959" fill="none" stroke-width="1.3946"/><path d="m352.915 231.279 48.271-17.626-59.875-28.756-16.267-50.616h-.177l-19.599 44.74-62.326 50.473h51.946v32.865l-51.323 56.347h50.7v33.488l-51.323 54.582h51.323v34.629l-23.211 64.59 32.377-33.487 10.381 40.485 23.825-75.697 17.728 76.299-.611-73.372v-31.849l48.26-16.276-48.873-27.592v-44.596l47.659-17.025-47.431-23.647z" fill="none" stroke-width="1.3946"/><path d="m178.456 464.285s56.98 7.807 67.04 5.17c0 0 73.818 19.411 190.115 20.305" fill="none" stroke-width="1.3946"/><path d="m131.515 402.291s144.532 61.994 271.24 54.646l52.08 21.363" fill="none" stroke-width="1.3946"/><path d="m116.516 363.425s101.793 24.354 129.27 18.209c0 0 149.536 59.669 231.938 73.745" fill="none" stroke-width="1.3946"/><path d="m519.839 394.631s-86.087-8.366-118.144-25.953c0 0-221.318-11.813-292.313-49.37" fill="none" stroke-width="1.3946"/><path d="m110.65 285.238s32.16 26.284 134.711 10.422c0 0 87.323 40.692 157.818 55.662 0 0 65.379 21.301 124.901 23.938" fill="none" stroke-width="1.3946"/><path d="m126.118 229.888s83.607 54.955 275.609 51.986c0 0 65.928 50.201 132.76 63.427" fill="none" stroke-width="1.3946"/><path d="m341.311 184.897-8.024 1.413 4.12 25.536v225.034l39.946 66.145-22.599-49.887-60.489-51.074 60.489-78.064-59.866-62.804 57.946-29.751-.271-5.045-11.169-41.337" fill="none" stroke-width="1.3946"/><path d="m318.701 457.683-15.27 14.825" fill="none" stroke-width="1.3946"/></g></svg>